<svg xmlns="http://www.w3.org/2000/svg" viewBox="0 0 116.68 74.13"><defs><style>.cls-1{fill:#575756;}.cls-2{fill:#80b4e2;}.cls-3{fill:none;}.cls-4{fill:#1e76b9;}.cls-5{fill:#045893;}.cls-6{fill:#044870;}</style></defs><title>logo-wave-color</title><g id="Capa_2" data-name="Capa 2"><g id="Capa_1-2" data-name="Capa 1"><polygon class="cls-1" points="35.58 74.01 29.36 74.01 29.36 65.76 35.53 65.76 35.53 67.3 30.94 67.3 30.94 69.08 35.07 69.08 35.07 70.62 30.94 70.62 30.94 72.47 35.58 72.47 35.58 74.01"/><path class="cls-1" d="M40.93,74H38V65.76h2.92a4.1,4.1,0,0,1,4.35,4.12A4.15,4.15,0,0,1,40.93,74Zm-1.34-1.54h1.34a2.59,2.59,0,1,0,0-5.17H39.59Z"/><rect class="cls-1" x="47.87" y="65.76" width="1.58" height="8.25"/><polygon class="cls-1" points="53.95 74.01 52.37 74.01 52.37 65.76 58.48 65.76 58.48 67.3 53.95 67.3 53.95 69.2 58.02 69.2 58.02 70.75 53.95 70.75 53.95 74.01"/><rect class="cls-1" x="60.94" y="65.76" width="1.58" height="8.25"/><path class="cls-1" d="M69.22,74.13a4.09,4.09,0,0,1-4.11-4.25,4.15,4.15,0,0,1,4.13-4.25A4.28,4.28,0,0,1,72.36,67l.4.36-1.09,1.12-.38-.36a2.76,2.76,0,0,0-2.06-.92,2.56,2.56,0,0,0-2.51,2.72,2.59,2.59,0,0,0,2.52,2.72,2.77,2.77,0,0,0,2.11-1l.36-.36,1.12,1.08-.39.37A4.26,4.26,0,0,1,69.22,74.13Z"/><rect class="cls-1" x="74.85" y="65.76" width="1.58" height="8.25"/><path class="cls-1" d="M83.16,74.13A4.11,4.11,0,0,1,79,69.88a4.16,4.16,0,0,1,4.16-4.25,4.1,4.1,0,0,1,4.13,4.25A4.16,4.16,0,0,1,83.16,74.13Zm0-7a2.73,2.73,0,1,0,2.55,2.72A2.57,2.57,0,0,0,83.16,67.16Z"/><path class="cls-1" d="M29.8,55.9H27.45L20,33.7,12.47,55.9H10.12L0,27.82H3.34L9.9,46.39,16,27.74h1.55L10.7,48.65l.69,2,7.5-22.87h2.29l7.5,22.87,8-22.79h3.19Z"/><path class="cls-1" d="M67.07,55.71H63.73l-3.41-7.52H45.15l-3.41,7.52H38.51l13-28.08h2.58ZM46.47,45.35H59L52.75,31.6Z"/><path class="cls-1" d="M79.71,55.9H77.26L65,27.82h3.37l8.86,20.81,8.93-20.82h1.6L78,50.45l.54,1.26,10.2-23.89H92Z"/><path class="cls-1" d="M116.68,55.71H96.34V27.82h20.14v2.89H99.38v9.5h15.38v2.88H99.38v9.73h17.3Z"/><path class="cls-2" d="M53.39,8.57c-.55-2.27-1.22-5.1-3.81-6.15-3.84-1.56-19.22,8-27,13.07A2.13,2.13,0,0,0,21.7,18a2.25,2.25,0,0,0,3.22,1.06c6.56-3,12.09-6,16.08-7.69h0S52.3,6,53.39,8.57Z"/><path class="cls-3" d="M74,7.29a10.2,10.2,0,0,0-1,.48C73.29,7.62,73.63,7.46,74,7.29Z"/><path class="cls-4" d="M73,7.77a6.94,6.94,0,0,0-1,.6C72.31,8.15,72.66,8,73,7.77Z"/><path class="cls-5" d="M77.73,0C72.66,0,59,11.64,54.83,11.64c-.61,0-.94-1-1.44-3.07,0-.05,0-.09-.07-.13C51.79,8.19,49,9.05,46.55,10c2.31.46,2.68,9.92,7,9.92,1.83,0,4.83-1.91,9.93-5.29C65.82,13,69.05,10.16,72,8.37a6.94,6.94,0,0,1,1-.6,10.2,10.2,0,0,1,1-.48C76.9,6,81.87,4.45,83.65,6.77,82.21,3.87,80.46,0,77.73,0Z"/><path class="cls-6" d="M53.32,8.44c-1.42-2.3-12.32,3-12.32,3h0c2.48-1.07,4.37-1.64,5.55-1.41h0C49,9.05,51.79,8.19,53.32,8.44Z"/><path class="cls-2" d="M94.37,6.63c-1.63-.52-6.52,3.3-8.3,3.3-.79,0-1.55-1.41-2.42-3.16a2.73,2.73,0,0,0-.48-.48c-1.68-.56-4.12,0-6.21.67,2.07,1,3.79,8.31,8.12,8.31,2.47,0,4.74-1.8,7.7-4.26C95,9.2,95.86,7.39,94.37,6.63Z"/><path class="cls-6" d="M83.17,6.29c-2.08-1.6-6.5-.19-9.16,1a4.36,4.36,0,0,1,2.76-.4L77,7C79.05,6.24,81.49,5.73,83.17,6.29Z"/></g></g></svg>