<?xml version="1.0" encoding="utf-8"?>
<!-- Generator: Adobe Illustrator 24.1.1, SVG Export Plug-In . SVG Version: 6.00 Build 0)  -->
<svg version="1.1" id="Capa_1" xmlns="http://www.w3.org/2000/svg" xmlns:xlink="http://www.w3.org/1999/xlink" x="0px" y="0px"
	 viewBox="0 0 1080 1080" style="enable-background:new 0 0 1080 1080;" xml:space="preserve">
<style type="text/css">
	.st0{fill:#00A5BA;}
	.st1{fill:url(#SVGID_1_);}
	.st2{fill:#FFFFFF;}
	.st3{fill:#E6E6E6;}
</style>
<g>
	<path class="st0" d="M1010.22,541.08c0,110.66-0.91,221.28,0.29,331.9c0.91,82.63-63.77,138.39-137.58,138.13
		c-223.58-0.81-447.16-0.26-670.74-0.32c-73.37-0.11-132.76-59.67-132.66-133.04c0-0.18,0-0.37,0-0.55V204.48
		c0-74.2,56.7-133.95,130.42-134.18c226.62-0.71,453.23-0.71,679.81,0c83.5,0.26,131.04,69.54,130.74,133.53
		C1009.76,316.27,1010.22,428.68,1010.22,541.08z"/>
</g>
<g>
	<path class="st0" d="M872.86,1011.12c73.81,0.26,138.49-55.51,137.58-138.13c-1.2-110.62-0.29-221.25-0.29-331.9
		c0-28.86,0-57.75,0-86.68L868.59,306.75l0,0c16.82,21.07,27.76,46.23,31.69,72.91c9.72,60.59,16.2,125.01-20.54,182.3
		c-3.43,5.35-5.99,11.31-11.92,14.58c-29.39,38.88-69.5,58.75-117.04,60.88c-50.61,2.27-101.39,0.75-152.07,0.91
		c-25.7,6.71-50.16,15.84-70.83,33.34c-35.42,29.97-48.77,69.5-49.35,114.38c-0.39,28.9,0,57.81,0,88.78c-3.3-2-6.45-4.24-9.43-6.71
		l140.95,142.57C697.53,1010.7,785.14,1010.84,872.86,1011.12z"/>
	
		<linearGradient id="SVGID_1_" gradientUnits="userSpaceOnUse" x1="623.5171" y1="546.4755" x2="1162.3412" y2="-37.0641" gradientTransform="matrix(1 0 0 -1 0 1082)">
		<stop  offset="0" style="stop-color:#4F6F8B"/>
		<stop  offset="0.12" style="stop-color:#537B95;stop-opacity:0.78"/>
		<stop  offset="0.31" style="stop-color:#5789A2;stop-opacity:0.5"/>
		<stop  offset="0.49" style="stop-color:#5A95AC;stop-opacity:0.28"/>
		<stop  offset="0.67" style="stop-color:#5D9DB3;stop-opacity:0.13"/>
		<stop  offset="0.84" style="stop-color:#5EA2B8;stop-opacity:0.03"/>
		<stop  offset="1" style="stop-color:#5FA4B9;stop-opacity:0"/>
	</linearGradient>
	<path class="st1" d="M872.86,1011.12c73.81,0.26,138.49-55.51,137.58-138.13c-1.2-110.62-0.29-221.25-0.29-331.9
		c0-28.86,0-57.75,0-86.68L868.59,306.75l0,0c16.82,21.07,27.76,46.23,31.69,72.91c9.72,60.59,16.2,125.01-20.54,182.3
		c-3.43,5.35-5.99,11.31-11.92,14.58c-29.39,38.88-69.5,58.75-117.04,60.88c-50.61,2.27-101.39,0.75-152.07,0.91
		c-25.7,6.71-50.16,15.84-70.83,33.34c-35.42,29.97-48.77,69.5-49.35,114.38c-0.39,28.9,0,57.81,0,88.78c-3.3-2-6.45-4.24-9.43-6.71
		l140.95,142.57C697.53,1010.7,785.14,1010.84,872.86,1011.12z"/>
</g>
<path class="st2" d="M747.76,410.02c-10.69-4.18-21.9-4.12-33.15-4.12c-121.83,0-243.7,0-365.53,0.23
	c-10.57,0.56-20.84-3.61-28.03-11.37c-47.34-47.89-95.26-95.2-143.15-142.9c4.89-6.22,10.53-3.43,15.16-3.43
	c180.98-0.19,361.97-0.19,542.97,0c83.34,0,151.13,49.28,164.12,131.39c9.72,60.59,16.2,125.01-20.54,182.3
	c-3.43,5.35-5.99,11.31-11.92,14.58c0-18.31,1.75-36.74,0-54.89c-5.61-56.8-31.56-93.97-84.08-109.65
	C772.32,408.65,760.17,402.85,747.76,410.02z"/>
<path class="st3" d="M747.76,410.02c12.35-7.16,24.5-1.36,35.64,2.01c52.52,15.81,78.48,52.85,84.09,109.65
	c1.81,18.15,0.16,36.58,0,54.89c-29.39,38.88-69.5,58.75-117.04,60.88c-50.61,2.27-101.39,0.75-152.07,0.91
	c-29.33-2.36-58.84-1.03-87.84,3.95c-68.05,10.98-133.47,28.74-178.21,87.75c0.49-42.42-4.34-84.99,3.24-127.21
	c10.73-61.24,68.47-110.17,130.36-110.17c85.67-0.23,171.38,0,257.08,0c25.08,0,40.5-11.28,47.34-33.93
	C776.14,439.96,768.59,423.85,747.76,410.02z"/>
<path class="st2" d="M332.65,730.06c44.68-59.01,110.17-76.76,178.21-87.75c29-4.98,58.51-6.31,87.84-3.95
	c-25.7,6.71-50.16,15.84-70.83,33.34c-35.42,29.97-48.77,69.5-49.35,114.38c-0.39,28.9,0,57.81,0,88.78
	c-15.91-9.43-25.63-22.94-36.97-34.12C404.74,804.36,368.87,767.03,332.65,730.06z"/>
</svg>
